<?xml version="1.0" standalone="no"?>
<!DOCTYPE svg PUBLIC "-//W3C//DTD SVG 1.1//EN" "http://www.w3.org/Graphics/SVG/1.1/DTD/svg11.dtd" >
<svg xmlns="http://www.w3.org/2000/svg" xmlns:xlink="http://www.w3.org/1999/xlink" version="1.1" viewBox="-10 0 1952 1000">
   <path fill="currentColor"
d="M1422 662c-303 -26 -845 -271 -1035 -271h-1c-97 14 -146 63 -146 99h4c211 0 851 273 1043 273h1h8c79 0 125 -44 126 -101zM527 345c334 53 789 261 950 263c106 -15 129 -53 135 -86c-347 -48 -787 -242 -957 -242h-3c-69 10 -107 26 -123 61c-1 1 -2 3 -2 4z
M1833 284c38 0 74 42 75 128c-5 62 -80 120 -161 120h-4h-28c-21 0 -39 0 -67 -4c-4 84 -75 138 -171 138c-2 85 -63 156 -177 156h-12h-2c-331 0 -903 -272 -1089 -274c-69 9 -107 26 -122 61c-6 12 -9 27 -10 44c6 -2 36 -15 42 -15c28 0 50 22 50 49c0 28 -22 50 -50 50
c-38 0 -73 -42 -74 -128c5 -62 79 -120 160 -120h4c1 -56 79 -156 189 -156c32 0 65 2 101 6c8 -61 81 -118 161 -118h4h3c290 0 878 252 1088 252c69 -9 107 -26 123 -61c5 -12 8 -27 9 -44c-6 2 -35 15 -42 15c-28 0 -50 -22 -50 -49c0 -28 22 -50 50 -50z" />
</svg>
