<?xml version="1.0" standalone="no"?>
<!DOCTYPE svg PUBLIC "-//W3C//DTD SVG 1.1//EN" "http://www.w3.org/Graphics/SVG/1.1/DTD/svg11.dtd" >
<svg xmlns="http://www.w3.org/2000/svg" xmlns:xlink="http://www.w3.org/1999/xlink" version="1.1" viewBox="-10 0 1860 1000">
   <path fill="currentColor"
d="M494 666c1 54 44 97 119 97h8h1c183 0 792 -261 993 -261h4c0 -34 -46 -81 -139 -94h-1c-181 0 -697 233 -985 258zM1346 364c0 -1 -1 -3 -2 -4c-15 -33 -51 -49 -117 -58h-3c-162 0 -581 185 -911 230c5 32 27 68 128 82c154 -2 587 -200 905 -250zM102 306
c27 0 48 21 48 47s-21 47 -48 47c-6 0 -34 -12 -40 -14c1 16 4 30 9 42c15 33 51 49 117 58c200 0 760 -240 1036 -240h3h4c76 0 146 54 153 112c34 -4 66 -6 96 -6c105 0 179 96 180 149h4c77 0 148 55 153 114c-1 82 -35 122 -71 122c-27 0 -48 -21 -48 -47s21 -47 48 -47
c6 0 34 12 40 14c-1 -16 -4 -30 -9 -42c-15 -33 -51 -49 -117 -58c-177 2 -721 262 -1037 262h-2h-12c-108 0 -166 -68 -168 -149c-91 0 -159 -52 -163 -132c-26 4 -43 4 -63 4h-27h-4c-77 0 -148 -55 -153 -114c1 -82 35 -122 71 -122z" />
</svg>
